<!DOCTYPE svg PUBLIC "-//W3C//DTD SVG 1.1//EN" "http://www.w3.org/Graphics/SVG/1.1/DTD/svg11.dtd">
<!-- Uploaded to: SVG Repo, www.svgrepo.com, Transformed by: SVG Repo Mixer Tools -->
<svg height="800px" width="800px" version="1.1" id="Layer_1" xmlns="http://www.w3.org/2000/svg" xmlns:xlink="http://www.w3.org/1999/xlink" viewBox="0 0 496.8 496.8" xml:space="preserve" fill="#000000">
<g id="SVGRepo_bgCarrier" stroke-width="0"/>
<g id="SVGRepo_tracerCarrier" stroke-linecap="round" stroke-linejoin="round"/>
<g id="SVGRepo_iconCarrier"> <path style="fill:#eff1f5;" d="M480,385.2c0,12.8-10.4,23.2-23.2,23.2H31.2C18.4,408.4,8,398,8,385.2V103.6 c0-12.8,10.4-23.2,23.2-23.2h426.4c12.8,0,23.2,10.4,23.2,23.2v281.6H480z"/> <path style="fill:#B8BFBE;" d="M460.8,96.4c6.4,0,11.2,3.2,11.2,9.6v284.8c0,6.4-4.8,9.6-11.2,9.6H35.2c-6.4,0-11.2-3.2-11.2-9.6 V106c0-6.4,4.8-9.6,11.2-9.6H464 M460.8,72.4H35.2C16,72.4,0,86.8,0,106v284.8c0,19.2,16,33.6,35.2,33.6h426.4 c19.2,0,35.2-14.4,35.2-33.6V106C496,86.8,480,72.4,460.8,72.4L460.8,72.4z"/> <path style="fill:#4C5654;" d="M420,354c-6.4,0-12-5.6-12-12V154c0-6.4,5.6-12,12-12s12,5.6,12,12v188C432,349.2,426.4,354,420,354z "/> <g> <circle style="fill:#9FAAA9;" cx="184" cy="248.4" r="45.6"/> <circle style="fill:#9FAAA9;" cx="312" cy="248.4" r="45.6"/> </g> </g>
</svg>